<svg width="2540" height="1319" viewBox="0 0 2540 1319" fill="none" xmlns="http://www.w3.org/2000/svg">
<path d="M932.006 15.3403C1191.51 -27.4364 1312.15 21.7479 1498.19 131.765C1569.49 173.936 1673.23 101.86 1782 122.636C1903.16 145.78 1943.19 248.284 2066.5 255.579C2192.3 263.022 2248.18 125.513 2371 152.723C2447.12 169.586 2540 255.579 2540 255.579V369.971L2357 255.579C2357 255.579 2181.45 298.505 2066.5 302.201C1954.96 305.788 1891.53 296.817 1782 276.247C1668.31 254.896 1498.19 193.347 1498.19 193.347C1498.19 193.347 1121.2 92.1361 896.682 122.636C694.759 150.066 711.31 231.195 517.432 283.686C421.179 309.745 461.18 306.758 321.179 332.194C261.314 343.071 162.178 406.213 149.178 479.27C136.177 552.327 88.9992 585.117 158.176 662.416C268.278 785.445 225.441 668.32 242.178 818.601C257.933 960.068 104.794 964.257 137.177 1083.43C171.616 1210.17 352.126 1205.36 503.526 1205.36C623.488 1205.36 893.113 1022.68 1146.18 1000.28C1326.76 984.297 1325.49 1119.29 1498.19 1063.25C1619.49 1018.83 1638.49 908.406 1801.5 899.635C1952.37 891.517 2014.56 1052.71 2165.5 1045.75C2257.57 1041.5 2287.18 986.782 2371 986.15C2438.64 985.64 2540 1022.68 2540 1022.68V1126.5C2540 1126.5 2438.73 1089.87 2371 1089.01C2280.99 1087.86 2238.8 1142.62 2149 1148.61C2009.26 1157.91 1940.67 1048.08 1801.5 1063.25C1670.56 1077.51 1626.99 1205.36 1498.19 1205.36C1352.49 1205.36 1324.47 1117.67 1217.66 1115.51C1070.99 1112.56 677.488 1293.28 402.133 1316.05C165.31 1335.63 -43.0339 1258.11 7.67676 1073.82C39.9101 956.676 93.5008 941.133 48.6769 826.625C16.7347 745.024 156.34 728.519 88.0777 662.416C10.2579 587.059 33.5983 552.177 50.6769 455.718C67.3055 361.801 118.501 294.031 234.678 239.818C350.856 185.605 470.003 206.338 554.504 179.719C759.253 115.22 798.975 37.2694 932.006 15.3403Z" fill="#1988F0" fill-opacity="0.4"/>
</svg>
