<svg width="3014" height="1524" viewBox="0 0 3014 1524" fill="none" xmlns="http://www.w3.org/2000/svg">
<path d="M1091.32 85.9823C1203.3 37.4791 1251.29 0 1468.26 0C1688.58 0 1726.04 148.603 1945 119.806C2163.96 91.0086 2374.65 88.0496 2503.22 119.806C2604.19 144.746 2651.65 206.259 2753.5 197.818C2868.86 188.258 2978.5 168.5 2978.5 168.5L3014 1313.95C3014 1313.95 2912.49 1387.98 2798.09 1446.08C2739.35 1475.9 2677.21 1501.53 2623.67 1510.77C2382.54 1552.4 2255.72 1315.11 2013.43 1313.95C1767.49 1312.77 1635.84 1586.43 1393.69 1510.77C1269.72 1472.04 1091.32 1313.95 1091.32 1313.95L0 1254.98V86.4184C0 86.4184 123.328 188.11 209.965 197.818C341.806 212.591 397.733 26.6034 529.912 30.1794C679.858 34.236 760.259 89.1883 892 197.818C940.992 238.215 960.841 142.497 1091.32 85.9823Z" fill="#133055"/>
</svg>
