<svg width="1987" height="1305" viewBox="0 0 1987 1305" fill="none" xmlns="http://www.w3.org/2000/svg">
<path d="M292.976 157.687C506.5 67.5 428.465 0.000133917 780.436 0C1261.9 48.0897 1113.19 211.103 1254.56 199.432C1344.56 192.003 1389.21 114.717 1476.54 136.916C1574.67 161.858 1549.1 291.14 1642.53 329.273C1771.58 381.944 1987 232.132 1987 232.132V380.729C1987 380.729 1769.48 487.38 1642.53 438.918C1562.89 408.515 1558.53 324.858 1476.54 300.901C1392.87 276.449 1353.55 298.015 1254.56 329.273C1123.2 370.752 1196.9 181.779 850.43 82.7143C563.954 23.564 486.948 209.498 319.474 213.999C152 218.5 50.5 213.999 50.5 213.999C50.5 213.999 76.7556 201.378 143 187C180.06 178.956 232.384 183.28 292.976 157.687Z" fill="#00CCFF" fill-opacity="0.3"/>
<path d="M529.532 1058.88C287.941 1058.81 241.117 1316.23 0 1304.62V1257.01C248.914 1298.34 276.444 889.183 529.532 867.479C710.119 851.992 1254.56 1058.88 1254.56 1058.88L1127 1119L980.822 1217.09C980.822 1217.09 723.253 1058.93 529.532 1058.88Z" fill="#00CCFF" fill-opacity="0.3"/>
</svg>
