<svg width="1729" height="927" viewBox="0 0 2605 1397" fill="none" xmlns="http://www.w3.org/2000/svg">
    <path d="M965.291 30.9772C1178.15 -15.0851 1307.33 -10.6194 1516.5 50.0318C1623.5 81.0579 1717.03 145.043 1855 153.497C1971.67 160.646 2034.96 103.507 2151.5 112.51C2256.54 120.624 2306.17 182.272 2411.5 184.497C2488.01 186.113 2605 153.497 2605 153.497V323.497C2605 323.497 2487.58 357.924 2411.5 351.497C2300.71 342.137 2260.95 255.035 2151.5 235.497C2037.17 215.088 1855 258.497 1855 258.497L1516.5 262.959C1516.5 262.959 1189.48 81.7972 965.291 112.51C763.666 140.131 730.789 301.071 537.198 353.928C403.433 390.45 431.581 346.43 259.719 377.92C189.724 409.387 150.977 454.894 140.353 497.379C129.728 539.865 109.4 657.46 178.475 735.299C288.413 859.185 370.955 749.323 387.667 900.652C403.399 1043.11 174.744 1042.56 207.08 1162.56C241.468 1290.18 398.262 1260.41 523.313 1282.02C771.841 1324.97 931.818 993.186 1184.51 970.628C1364.82 954.532 1516.5 997.21 1516.5 997.21V1270.12C1516.5 1270.12 1429.81 1191.61 1236.38 1191.55C995.168 1191.49 662.814 1405.55 422.07 1393.48C185.04 1381.6 -42.7742 1335.14 7.86128 1149.57C40.0469 1031.61 113.895 1015.96 69.1373 900.652C37.2424 818.482 176.641 801.862 108.48 735.299C30.7752 659.416 -9.19104 594.51 7.86231 497.379C24.4663 402.807 75.5617 342.878 178.475 294.448C299.215 237.629 402.842 326.176 537.198 294.448C763.949 240.9 737.068 80.3646 965.291 30.9772Z" fill="#1988F0" fill-opacity="0.4"/>
    <path d="M1101.68 94.7465C1475.18 80.2464 1454.5 135.67 1690.18 196.747C1845.5 236.997 1929.29 117.517 2079 148.997C2215.08 177.611 2251.55 316.101 2390.5 321.497C2476.77 324.847 2605 267.997 2605 267.997V1141.87L1690.18 1183.51C1690.18 1183.51 1565.18 1148.17 1438.01 1141.87C1189.91 1129.6 1036.31 1394.79 788.161 1383.39C560.677 1372.95 303.077 1284.62 360.681 1088.26C429.182 854.747 449.852 874.812 450.681 759.747C451.629 628.383 399.682 622.247 399.681 530.747C399.681 391.151 548.978 287.978 610.182 266.746C868.182 177.246 797.638 106.55 1101.68 94.7465Z" fill="#1988F0"/>
    <path d="M965.629 60.4803C1178.83 14.4019 1517.74 94.4787 1517.74 94.4787C1517.74 94.4787 1730.11 189.631 1871.5 177.497C1961.5 169.773 2006.16 89.4166 2093.5 112.497C2191.63 138.431 2166.06 272.849 2259.5 312.497C2388.56 367.26 2604 211.497 2604 211.497V365.997C2604 365.997 2386.46 476.885 2259.5 426.497C2179.85 394.887 2175.49 307.907 2093.5 282.997C2009.82 257.574 1970.5 279.997 1871.5 312.497C1740.13 355.623 1650 322.552 1517.74 298.075C1339 264.997 1180.86 76.5741 965.629 147.574C700.898 234.901 610.783 267.706 610.783 267.706C610.783 267.706 737.034 109.885 965.629 60.4803Z" fill="#00CCFF" fill-opacity="0.3"/>
</svg>
