<svg width="1923" height="1086" viewBox="0 0 1923 1086" fill="none" xmlns="http://www.w3.org/2000/svg">
<path d="M1546 0C1838.5 -0.000541373 1923 116.73 1923 116.73V946.924C1923 946.924 1744.57 1051.23 1620.58 1076.79C1378.39 1126.7 1246.72 946.148 1000.74 946.924C758.41 947.689 631.57 1104.25 390.398 1076.79C336.846 1070.69 274.695 1053.78 215.944 1034.1C101.524 995.771 0 946.924 0 946.924V19.9119C0 19.9119 148.056 169.556 263.432 175.864C365.299 181.433 409.878 95.5014 510.867 79.0462C639.456 58.0939 837.5 83.4996 1056.5 102.5C1275.5 121.5 1325.63 0.000407865 1546 0Z" fill="#133055"/>
</svg>
