<svg width="2510" height="1216" viewBox="0 0 2510 1216" fill="none" xmlns="http://www.w3.org/2000/svg">
<path d="M885.464 0.863386C1113.63 -4.03842 1206.71 10.3991 1421.69 84.0331C1564.5 132.947 1644.43 196.15 1799.5 202.709C1954.49 209.264 2033.04 94.6327 2186.5 116.491C2328.31 136.689 2510 283.254 2510 283.254V1030.97C2510 1030.97 2462.5 972.413 2186.5 1007.5C2034.24 1026.85 1952.65 894.049 1799.5 905.131C1643.79 916.399 1421.69 1030.97 1421.69 1030.97C1421.69 1030.97 1295.86 1098.56 1168.69 1092.75C920.593 1081.42 767.82 1225.97 519.67 1215.45C292.186 1205.81 157.277 1108.14 61.7026 943.047C42.8586 910.498 -0.818017 844.653 0.0116567 738.448C0.958847 617.201 88.8352 567.822 81.0119 440.966C81.0115 312.12 134.682 192.053 357.5 179C579 166.024 670.101 5.49017 885.464 0.863386Z" fill="#1988F0"/>
</svg>
