<svg width="1580" height="1155" viewBox="0 0 1580 1155" fill="none" xmlns="http://www.w3.org/2000/svg">
<path d="M147.641 93.6735C147.641 17.0765 112.936 5.16071 112.936 5.16071C112.936 5.16071 156.389 -6.4509 167.325 5.16072C200.476 40.3587 191.257 114.724 179.239 141.812C132.62 246.888 107.757 204.961 64.2454 357.659C20.7341 510.356 200.659 540.19 196.332 679.1C192.188 812.128 144.015 894.429 248.131 917.722C433.013 959.084 413.887 907.369 496.247 971.036C558.728 1019.34 693.662 1063.82 797.716 1070.94C1065.1 1089.22 1209 782.357 1209 782.357C1209 782.357 1289.24 673.925 1323.5 595.5C1360.49 510.818 1365.91 457.417 1385 367C1413.55 231.81 1429.5 15 1429.5 15H1524C1524 15 1440.29 247.184 1473.5 381C1507 516 1532.5 574 1445.5 656C1369.38 727.744 1341.5 828 1216.5 888C1126 924 1012.39 1192.53 855.731 1149.62C683.759 1102.51 468.793 1123.73 413.887 1067.31C333.781 985 333.081 1003.65 184.418 971.036C35.7185 938.418 123.813 773.824 99.9862 641.831C76.159 509.839 -48.1595 540.378 31.0935 311.073C59.8922 227.749 147.641 156.305 147.641 93.6735Z" fill="#4BDBFF" fill-opacity="0.3"/>
<path d="M162.326 110.235C172.345 53.4791 160.256 15 160.256 15H208.404C208.404 15 217.275 50.1999 209.957 75.5567C179.929 179.59 128.675 211.68 95.5405 364.883C62.4065 518.087 186.141 533.097 220.828 667.667C231.635 709.591 186.659 746.857 201.155 845.197C213.386 928.173 324.581 913.799 461.568 989.601C601.87 1067.24 674.93 1043.04 778.93 1050.16C1046.17 1068.44 993.04 947 1131.5 843.454C1243.5 759.695 1293.55 708.691 1356 608C1408.12 523.955 1359.99 448.061 1383.5 352C1418.68 208.234 1493.5 15 1493.5 15H1579.5C1579.5 15 1475.38 212.356 1444 357C1423.41 451.893 1449.38 524.552 1423 618C1381.5 765 1192 921.995 1170 935.954C1097.5 981.954 999.153 1134.93 836.915 1128.83C699.974 1123.68 450.178 1123.65 395.3 1067.24C315.236 984.93 368.896 1012.89 152.489 930.08C10.3827 875.7 147.44 764.761 136.957 627.296C128.156 511.876 -59.7763 538.272 19.4357 308.985C48.2194 225.667 154.561 154.229 162.326 110.235Z" fill="#1988F0" fill-opacity="0.4"/>
</svg>
