<svg width="1482" height="1170" viewBox="0 0 1482 1170" fill="none" xmlns="http://www.w3.org/2000/svg">
<path d="M1154.16 927.118C1278.99 797.289 1247.53 823.202 1354.26 760.456C1487.78 681.952 1403.92 592.406 1403.65 437.612C1403.39 284.473 1480 0 1480 0L284.225 11.3622C284.225 11.3622 87.0716 49.4019 120.26 118.26C173.652 229.035 35.5895 312.13 11.0417 416.367C-19.4162 545.699 32.5123 621.309 85.9376 681.996C156.003 761.585 57.3735 887.855 109.405 955.583C195.28 1067.36 256.658 996.437 319.114 1080.94C381.57 1165.43 612.851 1171.44 717.648 1165.43C1028.63 1147.59 1051.42 1033.98 1154.16 927.118Z" fill="black"/>
</svg>
