<svg width="142" height="56" viewBox="0 0 142 56" fill="none" xmlns="http://www.w3.org/2000/svg">
<g clip-path="url(#clip0_671_9229)">
<path d="M-77 -439C-107.928 -439 -133 -413.928 -133 -383V-56C-133 -25.0721 -107.928 0 -77 0H-1.84438C0.709175 0 3.25332 0.309015 5.73866 0.895264V0.895264L5.74017 0.89563C17.7324 3.72446 26.1613 5.71277 27.5 19L27.573 19.1196C30.9758 40.0345 49.1234 56 71 56C92.8746 56 111.021 40.0374 114.426 19.1252L114.5 19C115.835 5.75067 124.4 3.7359 136.372 0.9198V0.9198C138.93 0.318038 141.548 0 144.177 0H218C248.928 0 274 -25.0721 274 -56V-383C274 -413.928 248.928 -439 218 -439H-77Z" fill="white"/>
</g>
<defs>
<clipPath id="clip0_671_9229">
<rect width="142" height="56" fill="white"/>
</clipPath>
</defs>
</svg>
