<svg width="558" height="72" viewBox="0 0 558 72" fill="none" xmlns="http://www.w3.org/2000/svg">
<g clip-path="url(#clip0_867_9241)">
<path d="M438.27 70C468.29 70 493.889 51.0349 503.778 24.4119C508.572 11.5064 519.305 0 533.072 0V0C546.84 0 558 11.1604 558 24.9276V309C558 326.673 543.673 341 526 341H32.9046C15.2681 341 0.956439 326.73 0.904812 309.094L0.0939481 32.0937C0.0421066 14.3841 14.3841 0 32.0938 0H336.395C354.068 0 367.755 15.0482 375.557 30.906C386.952 54.0661 410.753 70 438.27 70Z" fill="white"/>
</g>
<defs>
<clipPath id="clip0_867_9241">
<rect width="558" height="72" fill="white"/>
</clipPath>
</defs>
</svg>
