<?xml version="1.0" encoding="UTF-8"?> <svg xmlns="http://www.w3.org/2000/svg" id="a" viewBox="0 0 406.51 408.31"><defs><style>.b{fill:#0055a5;}</style></defs><path class="b" d="M9.58,163.39l22.1,5.82c2.08,.55,3.53,.93,4.47-1.09l1.79,.47-2.39,9.09-1.79-.47c.17-2.23-1.28-2.61-3.36-3.16l-23.11-6.06c-2.08-.55-3.53-.93-4.48,1.09l-1.81-.5,2.6-9.86,19.4-11.08-9.67-2.55c-2.08-.55-3.53-.93-4.48,1.09l-1.79-.47,2.39-9.09,1.79,.47c-.17,2.23,1.28,2.61,3.36,3.16l23.11,6.09c2.08,.55,3.53,.93,4.48-1.09l1.79,.47-2.39,9.09-1.79-.47c.17-2.23-1.28-2.61-3.36-3.16l-4.56-1.19-22.3,13.4Z"></path><path class="b" d="M37.73,127.56l2.05-.68c.29,.94,.91,1.73,1.76,2.23,3.46,1.82,7.15-1.89,8.6-4.63,1.65-3.14,2.4-8.34-1.36-10.32-8.36-4.39-13,18.61-24.89,12.33-6.77-3.56-5.58-11.52-2.58-17.23,2.7-5.13,7-8.91,12.84-9.91l1.77,7.37-1.81,1c-.24-.48-.63-.87-1.11-1.12-3.14-1.66-6.33,2.37-7.61,4.8s-2.84,6.7,.39,8.4c6.72,3.54,12.6-19.24,25.39-12.52,7.35,3.86,6.52,12.75,3.16,19.12-3.7,7-8.1,9.29-15.63,10l-.97-8.84Z"></path><path class="b" d="M62.19,94.56l3.12,2.58c1.66,1.37,2.81,2.33,4.52,.89l1.43,1.19-7.15,8.62-1.43-1.18c1.1-2-.06-2.91-1.71-4.28l-18.39-15.26c-1.66-1.38-2.81-2.33-4.53-.89l-1.42-1.19,10.47-12.62c5.55-6.69,11.58-6.76,15.93-3.15,6.81,5.65,3.86,13.91,1,20.74l-1.84,4.55Zm-3.27-2.72c1.72-4.85,4.79-12.66,.08-16.58-3.39-2.81-7.45-1.44-10,1.64l-3.28,4,13.2,10.94Z"></path><path class="b" d="M79.21,59.99l7.25-5.9c1.48-1.2,2.6-2.43,1.38-4.34l1.94-1.57,5.86,7.21-1.94,1.6c-1.61-1.59-3-.74-4.52,.46l-7.26,5.9,7.22,8.88c1.36,1.62,2.3,2.76,4.26,1.76l1.17,1.43-8.69,7.07-1.17-1.5c1.46-1.7,.51-2.86-.84-4.53l-15.08-18.54c-1.36-1.67-2.3-2.83-4.26-1.75l-1.17-1.44,22.47-18.26,4.76,5.86-1.94,1.58c-2.33-2.23-3.84-1.07-5.89,.6l-9.7,7.88,6.15,7.6Z"></path><path class="b" d="M99.72,37.83c-3.4-6.36-1-14.26,5.36-17.66,6.36-3.4,14.26-1,17.66,5.36,3.4,6.36,1,14.26-5.36,17.66-.05,.03-.09,.05-.14,.07-6.34,3.32-14.17,.89-17.52-5.43Zm20.07-10.71c-2.74-5.16-8.46-7-13.37-4.35-4.72,2.58-6.46,8.49-3.88,13.22,.04,.08,.09,.16,.13,.23,2.31,4.86,8.13,6.93,12.99,4.62,.15-.07,.3-.15,.45-.23,4.79-2.54,6.36-8.45,3.68-13.49Zm-15.17,2.48c-.39-.74-.8-.76-1.64-.32l-.49-.93,5.66-3c1.91-1,4.46-2.26,6,.67,.86,1.77,.22,3.9-1.47,4.91v.06c1.78-.54,3.08,.79,4.27,1.69,.9,.64,2,1.49,2.82,1.05l.49,.92-.77,.41c-.87,.63-1.94,.89-3,.75-1.85-.41-4.26-4.35-6.26-2.74l1.86,3.49c.31,.59,.88,.76,1.68,.34l.5,.92-5.27,2.83-.49-.93c.83-.44,1-.79,.63-1.56l-4.52-8.56Zm5,2.24l.3-.17c1.52-.8,2.6-1.46,1.3-3.9-1-1.79-2.1-1.78-3.3-1.14-.53,.28-.82,.48-.34,1.38l2.04,3.83Z"></path><path class="b" d="M176.81,14.46l-2.21-1.16c.36-.62,.49-1.34,.37-2.05-.68-3.49-4.61-4.61-7.9-4-6.58,1.27-8.79,8.27-7.65,14.21,1.59,8.2,9,14.05,17.37,12.43,2.7-.52,5-1.57,5.25-4.48l2.45-.47,1.37,7.05c-2.36,1.03-4.83,1.78-7.36,2.23-18.41,3.56-24.79-8.4-26-14.68-1.95-10.11,3.78-18.91,13.94-20.87,5.63-.97,11.39,.86,15.41,4.92l-5.04,6.87Z"></path><path class="b" d="M191.56,33.83c2.21-.36,2.23-1.86,2.27-4l.38-23.9c0-2.15,.06-3.64-2.13-4.08V0l27.62,.44-.12,7.19h-2.49c-.61-2.86-1.41-3-4.06-3l-12-.2-.15,9.2,8.75,.14c1.89,0,3.55-.19,3.84-2.43h2.49l-.15,9.29h-2.5c-.21-2.25-1.85-2.53-3.75-2.56l-8.75-.14-.22,13.6,13.19,.21c2.45,0,3.81-.59,4.31-3.18h2.5l-.13,7.55-28.94-.47,.04-1.81Z"></path><path class="b" d="M254.27,38.83c.55,1.45,1,2.38,2.51,3l-.41,1.81-8.58-1.93-5.54-17-5.25-1.25-2.09,9.27c-.47,2.1-.8,3.56,1.25,4.44l-.4,1.8-10.93-2.46,.41-1.8c2.23,.09,2.56-1.37,3-3.47l5.26-23.32c.47-2.1,.8-3.56-1.26-4.43l.41-1.81,17.51,4c5.85,1.31,10.68,5.58,9.24,12-.99,4.67-5.24,7.91-10,7.65l4.87,13.5Zm-10.2-18.19c3.71,.84,7.66,.34,8.62-3.9,1-4.49-2.61-6.64-6.34-7.58l-5.81-1.31-2.54,11.42,6.07,1.37Z"></path><path class="b" d="M300.34,24.08l-3,6.75-2.28-1c.82-2.7-.1-3.44-2.16-4.36l-4.9-2.2-10.41,23.27c-.88,2-1.49,3.34,.35,4.6l-.75,1.69-10.19-4.58,.76-1.68c2.17,.53,2.78-.84,3.66-2.8l10.37-23.28-4.88-2.18c-2.05-.92-3.23-1.12-4.69,1.3l-2.28-1,3-6.75,27.4,12.22Z"></path><path class="b" d="M300.3,59.4c-1.16,1.81-2,3.07-.34,4.59l-1,1.56-9.43-6.05,1-1.55c2.07,.85,2.88-.41,4-2.22l12.9-20.12c1.16-1.81,2-3.07,.33-4.6l1-1.55,9.43,6-1,1.56c-2.07-.85-2.88,.41-4,2.22l-12.89,20.16Z"></path><path class="b" d="M325,58.14l7,6.15c1.43,1.25,2.84,2.15,4.51,.62l1.88,1.65-6.12,7-1.89-1.65c1.3-1.85,.22-3.13-1.21-4.38l-7-6.16-7.6,8.62c-1.41,1.62-2.4,2.75-1,4.5l-1.22,1.39-8.43-7.38,1.22-1.39c1.92,1.15,2.91,0,4.33-1.6l15.74-18c1.41-1.61,2.4-2.74,1-4.49l1.22-1.39,21.78,19.06-5,5.68-1.88-1.64c1.81-2.68,.41-4-1.59-5.71l-9.4-8.23-6.34,7.35Z"></path><path class="b" d="M338.77,94.41c-1.64,1.39-2.78,2.36-1.67,4.29l-1.41,1.2-7.24-8.54,1.41-1.2c1.73,1.42,2.87,.45,4.51-.94l18.23-15.46c1.64-1.39,2.78-2.36,1.67-4.29l1.41-1.2,7.24,8.54-1.41,1.18c-1.73-1.42-2.87-.45-4.51,.94l-18.23,15.48Z"></path><path class="b" d="M341.12,103.16c1.5,1.66,2.77,.87,4.6-.26l20.28-12.59c1.83-1.14,3.1-1.93,2.28-4l1.58-1,14.54,23.47-6.13,3.79-1.27-2.11c2.08-2,1.74-2.78,.3-5l-6.3-10.21-7.82,4.84,4.61,7.44c1,1.62,2.08,2.89,4.13,1.92l1.31,2.12-7.9,4.9-1.33-2.13c1.78-1.39,1.12-2.93,.12-4.54l-4.61-7.44-11.56,7.16,6.95,11.22c1.29,2.09,2.56,2.89,5,1.9l1.31,2.13-6.42,4-15.25-24.62,1.58-.99Z"></path><path class="b" d="M358.51,131.69c1.19,2.17,2.61,1.67,4.64,1l22.53-8c2-.71,3.44-1.21,3-3.66l1.74-.61,4,11.4c4.7,13.3-2,23.5-10.65,26.57-6.41,2.27-17.14,1.92-22.32-12.74l-4.71-13.34,1.77-.62Zm5.39,7.9l1,2.78c2.71,7.68,7.84,12.29,16.23,9.32s11.78-11.37,8.95-19.39l-.62-1.74-25.56,9.03Z"></path><path class="b" d="M10.36,210.29l-4,.21c-2.14,.12-3.63,.2-3.91,2.4l-1.86,.09-.59-11.12,1.84-.09c.51,2.16,2,2.08,4.14,2l23.75-1.26c2.13-.12,3.62-.2,3.91-2.4l1.83-.1,.87,16.29c.46,8.65-3.91,12.77-9.52,13.06-8.79,.47-12.21-7.57-14.77-14.46l-1.69-4.62Zm4.22-.22c2,4.67,5,12.48,11.16,12.16,4.38-.23,6.42-4,6.21-8l-.27-5.12-17.1,.96Z"></path><path class="b" d="M19.17,231.69c10.52-2.64,20,3.6,22.58,13.93s-2.77,20-13.14,22.64c-10.72,2.69-20.09-3-22.81-13.82-2.68-10.67,2.7-20.07,13.37-22.75Zm7.83,29.59c7-1.76,12.23-7.07,10.36-14.5-2-8-9.26-9.94-16.55-8.11-7.09,1.79-12.46,7-10.52,14.7,1.98,8.06,9.48,9.72,16.71,7.91Z"></path><path class="b" d="M29.4,271.11c9.69-4.89,20.3-.87,25.09,8.64s1.69,20.15-7.86,25c-9.87,5-20.25,1.51-25.29-8.48-4.95-9.85-1.76-20.21,8.06-25.16Zm14.09,27.17c6.49-3.27,10.38-9.58,6.93-16.43-3.69-7.33-11.21-7.66-17.92-4.28-6.54,3.3-10.63,9.54-7,16.65,3.69,7.42,11.37,7.39,17.99,4.06Z"></path><path class="b" d="M35.8,316.66c1.65,1.5,2.83,.6,4.54-.7l18.91-14.42c1.7-1.3,2.89-2.2,1.88-4.19l1.46-1.11,6.76,8.86-1.47,1.12c-1.64-1.5-2.83-.6-4.53,.7l-20.18,15.38,5.79,7.6c1.63,2.14,3.45,3.7,6.16,2l1.51,2-6.33,4.83-16-20.93,1.5-1.14Z"></path><path class="b" d="M82.22,356.29c-4.67-3.73-4.19-9-1.43-12.48s7.85-5.12,12.52-1.4,4.15,9,1.36,12.49-7.79,5.09-12.45,1.39Z"></path><path class="b" d="M120.1,375.29l.82,2c-.91,.35-1.65,1.04-2.08,1.91-1.54,3.56,2.41,7,5.24,8.19,3.24,1.4,8.45,1.77,10.13-2.11,3.75-8.63-19.42-11.47-14.08-23.79,3-7,11-6.4,16.91-3.84,5.29,2.3,9.36,6.29,10.79,12l-7.19,2.34-1.09-1.72c.45-.29,.79-.7,1-1.19,1.41-3.24-2.82-6.11-5.33-7.2s-6.86-2.33-8.3,1c-3,6.93,20,11.08,14.3,24.26-3.29,7.58-12.16,7.42-18.73,4.56-7.26-3.15-9.83-7.35-11.06-14.77l8.67-1.64Z"></path><path class="b" d="M153.88,391.36l-.88,3.93c-.49,2.08-.83,3.53,1.21,4.42l-.42,1.79-10.9-2.51,.42-1.79c2.22,.12,2.57-1.34,3.06-3.42l5.46-23.15c.49-2.08,.83-3.53-1.21-4.43l.43-1.79,15.88,3.75c8.43,2,11.16,7.34,9.86,12.81-2,8.57-10.69,9.59-18,10.11l-4.91,.28Zm1-4.11c5.05-.6,13.4-1.34,14.81-7.3,1-4.26-2-7.27-5.89-8.19l-5-1.17-3.92,16.66Z"></path><path class="b" d="M204.71,403.72c.41,1.33,.73,2.45,2.26,2.75l-.13,1.84-11.62-.81,.13-1.83c2.56-.23,2.4-1.48,1.69-3.58l-2.51-7.6-12.16-.85-3.29,7.2c-.94,2-1,3,1.28,3.78l-.13,1.84-9.73-.68,.13-1.83c1.84,0,2.64-2.06,3.28-3.42l13.55-29.18,7.2,.5,10.05,31.87Zm-11.47-13.61l-3.85-12.12-5.28,11.45,9.13,.67Z"></path><path class="b" d="M224.81,389.51c-2.34-10.59,4.17-19.87,14.56-22.17s19.95,3.33,22.26,13.78c2.39,10.78-3.53,20-14.46,22.41-10.74,2.37-19.98-3.28-22.36-14.02Zm29.81-6.94c-1.57-7.1-6.73-12.43-14.21-10.77-8,1.77-10.19,9-8.57,16.31,1.58,7.15,6.62,12.65,14.39,10.94,8.12-1.8,9.99-9.24,8.39-16.48Z"></path><path class="b" d="M275.69,383.61l1.61,3.7c.86,2,1.46,3.33,3.62,2.81l.74,1.69-10.21,4.46-.74-1.69c1.85-1.24,1.25-2.6,.39-4.57l-9.52-21.79c-.85-2-1.45-3.33-3.61-2.82l-.74-1.68,14.95-6.53c7.94-3.47,13.33-.83,15.58,4.32,3.52,8.08-2.81,14.1-8.36,18.91l-3.71,3.19Zm-1.69-3.87c3.68-3.51,9.92-9.11,7.47-14.72-1.75-4-6-4.61-9.63-3l-4.69,2.05,6.85,15.67Z"></path><path class="b" d="M301.15,380.78c1.61-1.53,.8-2.78-.37-4.57l-13-19.92c-1.17-1.79-2-3-4-2.18l-1-1.54,23-15,3.92,6-2.09,1.36c-2.09-2-2.81-1.67-5-.19l-10,6.53,5,7.66,7.29-4.75c1.59-1,2.83-2.14,1.81-4.15l2.09-1.36,5.05,7.75-2.08,1.36c-1.43-1.74-2.94-1-4.53,0l-7.29,4.76,7.4,11.33,11-7.18c2-1.33,2.81-2.6,1.77-5l2.09-1.36,4.1,6.3-24.13,15.74-1.03-1.59Z"></path><path class="b" d="M348.64,340.58c1.5,.36,2.52,.5,3.85-.41l1.26,1.34-6.39,6-17.12-4.94-3.89,3.64,6.48,6.9c1.46,1.56,2.48,2.64,4.35,1.44l1.26,1.34-8.12,7.63-1.26-1.35c1.32-1.78,.3-2.87-1.17-4.43l-16.28-17.34c-1.46-1.56-2.48-2.65-4.35-1.44l-1.26-1.34,13-12.23c4.35-4.08,10.56-5.68,15-.93,3.28,3.41,3.6,8.7,.74,12.48l13.9,3.64Zm-20.64-1.74c2.76-2.59,4.56-6.12,1.59-9.28-3.13-3.34-6.92-1.55-9.78,1l-4.31,4.06,8,8.48,4.5-4.26Z"></path><path class="b" d="M373.11,308.21c1.34,.35,2.46,.67,3.52-.46l1.5,1.07-6.82,9.45-1.49-1.08c1.16-2.29,0-2.82-2.14-3.33l-7.79-1.87-7.14,9.89,4.38,6.6c1.19,1.84,2.07,2.41,3.89,.9l1.49,1.08-5.71,7.91-1.49-1.08c1-1.55-.36-3.33-1.17-4.59l-17.64-26.92,4.23-5.85,32.38,8.28Zm-17.62,2.56l-12.3-3.11,6.94,10.53,5.36-7.42Z"></path><path class="b" d="M358.93,267.5l6.56,3.34-1.14,2.22c-2.64-1-3.42-.07-4.44,1.92l-2.42,4.74,22.6,11.54c1.9,1,3.23,1.66,4.58-.11l1.64,.83-5.07,9.93-1.64-.84c.65-2.13-.68-2.81-2.59-3.78l-22.6-11.54-2.41,4.74c-1,2-1.27,3.15,1.05,4.73l-1.13,2.21-6.56-3.35,13.57-26.58Z"></path><path class="b" d="M375.82,273.93c-10.43-3-15.5-13.12-12.58-23.36s12.43-16,22.71-13c10.62,3,15.91,12.62,12.83,23.38-3.02,10.56-12.39,16.04-22.96,12.98Zm8.07-29.52c-7-2-14.13,0-16.23,7.37-2.26,7.89,3,13.24,10.27,15.3,7,2,14.27,.2,16.46-7.45,2.28-7.99-3.39-13.18-10.5-15.22Z"></path><path class="b" d="M402.11,206.64c1.35-.75,2.19-1.34,2.56-2.91l1.84,.14-.65,8.73-16,7.95-.4,5.31,9.43,.7c2.13,.16,3.62,.27,4.18-1.89l1.84,.14-.83,11.12-1.84-.14c-.23-2.21-1.72-2.32-3.85-2.48l-23.72-1.77c-2.14-.16-3.62-.27-4.18,1.89l-1.84-.14,1.35-17.82c.44-5.95,3.93-11.33,10.43-10.84,4.73,.29,8.55,3.98,9,8.7l12.68-6.69Zm-16.41,12.7c.28-3.78-.79-7.6-5.1-7.92-4.57-.34-6.15,3.54-6.54,7.35l-.44,5.91,11.61,.86,.47-6.2Z"></path><path class="b" d="M379.13,201.93c-6.38,.54-12-4.19-12.54-10.58s4.19-12,10.58-12.54c6.38-.54,12,4.19,12.54,10.58,0,.05,0,.11,.01,.16,.46,6.33-4.26,11.85-10.59,12.38Zm-1.68-20.14c-4.72,.62-8.04,4.95-7.42,9.67,.62,4.72,4.95,8.04,9.67,7.42,4.59-.61,7.88-4.73,7.46-9.34-.39-4.8-4.66-8.17-9.71-7.75Zm-3.31,13.2c-.75,.07-.91,.39-.84,1.23l-.93,.07-.46-5.67c-.16-1.92-.27-4.44,2.67-4.68,1.74-.07,3.25,1.2,3.49,2.93h.06c.18-1.64,1.72-2.23,2.88-2.89,.83-.51,1.91-1.09,1.84-1.93l.93-.08,.06,.78c.2,.92,.05,1.88-.43,2.69-1,1.36-5.05,1.94-4.44,4.13l3.51-.28c.58-.05,.93-.45,.86-1.26l.93-.07,.44,5.33-.94,.07c-.06-.84-.27-1.13-1-1.07l-8.63,.7Zm3.59-3.31v-.31c-.13-1.52-.28-2.63-2.73-2.43-1.79,.14-2.19,1.08-2.09,2.29,.05,.53,.1,.83,1,.76l3.82-.31Z"></path><path class="b" d="M204.69,159.9h-18.43v33.09h18.12c5.33,0,9.42-1.33,12.25-4,2.83-2.67,4.24-6.45,4.22-11.34,0-5.33-1.45-9.62-4.34-12.85-2.89-3.23-6.83-4.87-11.82-4.9Z"></path><path class="b" d="M141.83,271.47c-27.41,5.63-59,3.8-71.28,2.75,4.07,7.69,8.8,15.01,14.13,21.88,23.33-14.83,71.13-20.29,71.13-20.29,45.46-8.76,109,12.6,109,12.6,29.47,6.76,46.89,8.11,57.17,7.5,2.33-3.01,4.55-6.1,6.64-9.29-18-8.13-59.1-21-59.1-21-58.25-13.41-92.74-1.31-127.69,5.85Z"></path><path class="b" d="M62.79,228.46c-3.7-8.25-5.55-18.22-5.56-29.91v-5.68c0-11.24,1.96-21.07,5.87-29.5,3.57-8.04,9.46-14.84,16.9-19.54,7.33-4.6,15.84-6.9,25.53-6.9,13.92,0,25.11,3.67,33.57,11s13.26,17.43,14.41,30.3h-27.57c-.21-6.99-1.97-11.99-5.28-15s-8.36-4.54-15.13-4.57c-6.88,0-11.92,2.57-15.13,7.72-3.21,5.15-4.87,13.37-5,24.66v8.12c0,12.24,1.54,20.99,4.61,26.24,2.98,5.1,8.06,7.72,15.23,7.86,2.63-.27,5.76-.68,9.24-1.17,2.21-.67,4.26-1.8,6-3.31,3.33-2.99,5.12-7.74,5.36-14.26h27.5c-.16,3.88-.81,7.73-1.95,11.44l7.27-1.32v-86h45.78c8.03-.16,15.98,1.49,23.28,4.84,6.46,2.97,11.91,7.76,15.68,13.79,3.74,6.1,5.66,13.14,5.55,20.29,0,11.19-4,20.13-12,26.83-3.5,2.86-7.47,5.09-11.73,6.6l25.68,5.13c-1.25-5.24-1.92-10.61-2-16v-6.46c0-11.24,2.06-21.15,6.19-29.74,3.8-8.25,9.97-15.19,17.72-19.93,7.93-4.73,17.03-7.16,26.27-7,9.14-.16,18.15,2.25,26,6.94,7.71,4.72,13.88,11.57,17.77,19.73,4.23,8.54,6.37,18.32,6.42,29.35v5.28c.04,6.27-.7,12.51-2.22,18.59,2.26-.56,4.2-1.11,5.84-1.63,.27-3.66,.41-7.35,.41-11.08-.05-82.87-67.27-150.01-150.14-149.96-82.87,.05-150.01,67.27-149.96,150.14,0,7.49,.57,14.96,1.69,22.36,2.25,.51,4.94,1.11,7.9,1.74Z"></path><path class="b" d="M61.29,252.84c16.79,2.91,65.53,10.33,94.88,4.3,5.44-1.12,14.48-2.49,24.48-3.87h-22.05v-10.85c-5,1.35-9.68,2.69-13.92,4-4.02,1.18-8.15,1.96-12.33,2.34-.7,.37-1.39,.74-2.12,1.08-7.65,3.46-15.98,5.17-24.38,5-12.19,0-22.28-3.21-30.29-9.63-7-1.13-13.13-2.29-17.52-3.18,.95,3.67,2.04,7.27,3.25,10.81Z"></path><path class="b" d="M317.12,221.16c2.67-5.66,4-13.13,4-22.42v-5.28c0-11.39-1.9-20.05-5.71-26-3.43-5.71-9.69-9.1-16.35-8.86-13.86,0-21.19,10.4-22,31.2l-.08,8.43c0,9.52,1.33,17.19,4,23,12.04,.68,24.11,.66,36.14-.07Z"></path><path class="b" d="M217.73,296.83c-5.96-2.26-12.18-3.75-18.52-4.44-51.46-5.67-89.1,11-102.06,17.86,53.46,53.49,138.37,58.82,198.1,12.43-21.25-4.91-60.87-19.55-77.52-25.85Z"></path><path class="b" d="M186.26,219.21l19.3-4.89h-19.3v4.89Z"></path><path class="b" d="M333.77,241.23c-2.52,2.55-5.35,4.78-8.41,6.64-7.88,4.73-16.93,7.15-26.12,7-9.12,.17-18.11-2.15-26-6.73-6.32-3.77-11.62-9.02-15.44-15.31-8.57-1.45-15.09-2.73-18.09-3.45-8.05-1.93-30.48,1.42-53.45,6.38v16.78c22-2.94,46.07-5.67,46.07-5.67,35.7-3.57,85.91,16.7,104.83,25.07,5.01-9.87,8.89-20.27,11.59-31-4.46,.33-9.52,.41-14.98,.29Z"></path></svg> 