<?xml version="1.0" encoding="UTF-8"?> <svg xmlns="http://www.w3.org/2000/svg" id="a" viewBox="0 0 866.34 297.1"><defs><style>.b{fill:#fff;}.c{fill:#0075aa;}.d{fill:#00a7e1;}.e{fill:#0073a8;}.f{fill:#004976;}.g{fill:#26485f;}</style></defs><path class="b" d="M375,148.54c-.02,7.5-1.9,14.87-5.48,21.46-3.16,5.79-7.45,10.89-12.61,15l-124.32,99.85c-20.98,16.33-50.38,16.33-71.36,0L36.91,185c-4.72-3.78-8.72-8.38-11.79-13.59-4.1-6.93-6.27-14.83-6.29-22.88,0-13.93,6.59-27.21,18.08-36.44L161.23,12.26c20.36-16.35,51.03-16.35,71.36,0l124.32,99.83c11.49,9.24,18.09,22.53,18.09,36.45Z"></path><path class="d" d="M369.52,170c-3.16,5.79-7.45,10.89-12.61,15l-124.32,99.82c-20.98,16.33-50.38,16.33-71.36,0L36.91,185c-4.72-3.77-8.72-8.36-11.79-13.56l1.74-6.44c2.51-2.31,5.22-4.4,8.08-6.26,7.6-4.88,20.78-10.93,40.71-11.65,33.15-1.2,156.67,25.16,156.67,25.16,0,0,69.74,5.71,72,4.95s41.41-14.36,55.34-36.29c.99-1.55,1.86-3.18,2.6-4.86l7.26,33.95Z"></path><path class="g" d="M356.91,112.09L232.59,12.26c-20.33-16.35-51-16.35-71.36,0L36.91,112.09c-11.49,9.23-18.08,22.51-18.08,36.44,.02,8.05,2.19,15.95,6.29,22.88,3.07,5.21,7.07,9.81,11.79,13.59l124.32,99.85c20.98,16.33,50.38,16.33,71.36,0l124.32-99.85c5.16-4.11,9.45-9.21,12.61-15,3.58-6.59,5.46-13.96,5.48-21.46,0-13.92-6.6-27.21-18.09-36.45Zm-9,61.68l-124.31,99.85c-15.22,12.23-38.16,12.23-53.38,0L45.9,173.77c-5.01-3.89-8.82-9.11-11-15.07-1.16-3.26-1.76-6.7-1.75-10.17,0-9.69,4.51-18.65,12.71-25.24L170.22,23.46c15.22-12.23,38.16-12.23,53.38,0l124.32,99.83c5.72,4.43,9.83,10.6,11.72,17.58,.67,2.5,1,5.07,1,7.66,0,9.69-4.52,18.66-12.72,25.24h-.01Z"></path><path class="c" d="M0,158.62c57.66-41,139.23-43.53,203.68-16.85,7,2.88,14.75,5.8,21.95,8,53.22,17.38,111.12,14.8,163.69-5.13l.85,1.15c-5.93,6.4-12.59,12.08-19.85,16.93-22.1,15.06-47.61,24.29-74.28,28.1-35.84,5.18-73.04-.82-106.35-14.74-43.69-18.08-91.85-25.21-139.47-22.37-16.64,.92-33.19,2.99-49.54,6.18l-.63-1.29-.05,.02Z"></path><path class="f" d="M213.52,100.2c-4.08,11.34-16.57,17.23-27.91,13.15-11.34-4.08-17.23-16.57-13.15-27.91,3.12-8.67,11.34-14.45,20.55-14.44h1.37c1.18,3.22,3.75,5.74,7,6.85-3.68,7.93-.23,17.34,7.7,21.02,1.4,.65,2.88,1.09,4.41,1.31l.04,.02Z"></path><path class="e" d="M214.82,67.15c0,.54-.05,1.09-.15,1.62-3.6,.23-7.01,1.69-9.67,4.13-.35,.32-.68,.65-1,1-.73,.81-1.37,1.68-1.92,2.62-2.72-.82-4.95-2.79-6.1-5.39-.24-.49-.42-1-.55-1.52-1.4-5.26,1.74-10.66,7-12.06,5.26-1.4,10.66,1.74,12.06,7,.22,.83,.33,1.69,.33,2.55v.05Z"></path><path class="d" d="M230.12,84.54c0,7.94-6.43,14.37-14.37,14.37h-.32c-.49,0-.98-.05-1.46-.12-7.21-.87-12.65-6.98-12.65-14.25,0-2.19,.5-4.34,1.47-6.3,.21-.47,.46-.92,.74-1.35,.49-.77,1.05-1.49,1.68-2.15,.31-.36,.64-.69,1-1,2.24-1.97,5.03-3.19,8-3.49,.48,0,.95-.07,1.44-.07h.09c7.93-.01,14.37,6.41,14.38,14.34h0v.02Z"></path><path class="b" d="M60,167.28c-.17,.07-.26,.26-.2,.43,.05,.13,.19,.22,.33,.22,10.11-.58,51.36,.19,88.55,23.9,42.14,26.85,110.73,35.92,139.19,9.12,0,0-36,9.59-77.58-5.93-40.97-15.28-104.4-44.28-150.29-27.74Z"></path><g><path class="f" d="M413.54,24.33h31.46c18.55,0,30.5,9.54,30.5,25.78v.21c0,17.3-13.31,26.42-31.55,26.42h-10.08v21h-20.33V24.33Zm30,36.47c7.24,0,11.64-3.77,11.64-9.53v-.21c0-6.29-4.4-9.66-11.74-9.66h-9.54v19.39h9.64Z"></path><path class="f" d="M481.56,61.21v-.21c0-21.06,17-38.15,39.63-38.15s39.41,16.88,39.41,37.94v.21c0,21.07-17,38.16-39.63,38.16s-39.41-16.88-39.41-37.95Zm58.28,0v-.21c0-10.58-7.65-19.81-18.87-19.81s-18.55,9-18.55,19.6v.21c0,10.59,7.65,19.81,18.77,19.81s18.65-9,18.65-19.6h0Z"></path><path class="f" d="M560.6,61.21v-.21c0-21.06,17-38.15,39.62-38.15s39.41,16.88,39.41,37.94v.21c0,21.07-17,38.16-39.62,38.16s-39.41-16.88-39.41-37.95Zm58.27,0v-.21c0-10.58-7.65-19.81-18.86-19.81s-18.56,9-18.56,19.6v.21c0,10.59,7.66,19.81,18.77,19.81s18.65-9,18.65-19.6h0Z"></path><path class="f" d="M651.76,24.33h20.33v55.55h35.53v17.82h-55.86V24.33Z"></path></g><g><path class="f" d="M413.54,112.31h20.33v27.46h26.13v-27.46h20.35v73.38h-20.35v-27.9h-26.1v27.9h-20.36V112.31Z"></path><path class="f" d="M490.79,149.21v-.21c0-21.07,17-38.16,39.62-38.16s39.41,16.87,39.41,37.94v.22c0,21.07-17,38.15-39.62,38.15s-39.41-16.88-39.41-37.94Zm58.28,0v-.21c0-10.6-7.65-19.81-18.87-19.81s-18.55,9-18.55,19.59v.22c0,10.59,7.65,19.81,18.76,19.81s18.66-9.02,18.66-19.6Z"></path><path class="f" d="M595.19,130.13h-22v-17.82h64.35v17.82h-22v55.56h-20.35v-55.56Z"></path><path class="f" d="M677.13,130.13h-22v-17.82h64.36v17.82h-22v55.56h-20.36v-55.56Z"></path><path class="f" d="M724.32,153.51v-41.2h20.68v40.77c0,10.58,5.34,15.62,13.52,15.62s13.48-4.83,13.48-15.1v-41.29h20.65v40.69c0,23.69-13.52,34.07-34.38,34.07s-33.95-10.61-33.95-33.56Z"></path><path class="f" d="M800.74,112.31h37.63c9.22,0,15.72,2.31,20,6.6,3.14,3.13,4.84,7.42,4.72,11.85v.24c0,8.49-4.83,13.52-11.32,16.35,8.9,2.94,14.57,8,14.57,17.93v.21c0,12.57-10.28,20.23-27.78,20.23h-37.82V112.31Zm32.6,29.25c6.18,0,9.64-2.1,9.64-6.41v-.21c0-4-3.14-6.29-9.22-6.29h-13.21v12.91h12.79Zm2.93,27.77c6.19,0,9.75-2.41,9.75-6.7v-.22c0-4-3.14-6.6-10-6.6h-15.51v13.52h15.76Z"></path></g><g><path class="f" d="M473.84,207.34h4.94v44.73h23.54v4.77h-28.48v-49.5Z"></path><path class="f" d="M520.13,207.34h5v44.73h23.55v4.77h-28.5l-.05-49.5Z"></path><path class="f" d="M567,207.34h5v49.5h-5v-49.5Z"></path><path class="f" d="M616.44,207.34l23.09,49.5h-5.34l-5.47-10.37h-26.3l-5.1,10.37h-5.52l23.39-49.5h1.25Zm-.62,10.53l-11.14,23.83h21.9l-10.76-23.83Z"></path><path class="f" d="M433.54,207.34l23.09,49.5h-5.31l-5.46-10.37h-26.34l-5.06,10.37h-5.52l23.38-49.5h1.22Zm-.62,10.53l-11.14,23.83h21.9l-10.76-23.83Z"></path><path class="f" d="M655.11,256.84v-49.5h1.08l33,37.95v-37.95h4.88v49.5h-1.07l-32.68-37.47v37.47h-5.21Z"></path><path class="f" d="M758.53,216.53l-3.9,3c-2.05-2.71-4.71-4.89-7.76-6.38-3.13-1.47-6.55-2.21-10-2.16-3.85-.03-7.64,.95-11,2.84-3.25,1.79-5.96,4.43-7.82,7.64-1.87,3.28-2.83,7-2.78,10.78-.15,5.68,2.11,11.17,6.21,15.1,4.19,4.06,9.84,6.25,15.67,6.06,6.74,.1,13.15-2.9,17.4-8.14l3.9,3c-2.44,3.11-5.59,5.59-9.18,7.25-3.85,1.74-8.04,2.63-12.27,2.58-8.67,0-15.5-2.88-20.49-8.65-4.21-4.89-6.45-11.18-6.29-17.63-.15-6.9,2.62-13.55,7.62-18.3,5.08-4.94,11.45-7.41,19.1-7.42,4.33-.07,8.62,.87,12.52,2.75,3.61,1.77,6.73,4.41,9.07,7.68Z"></path><path class="f" d="M781.17,207.34h28.37v4.85h-23.43v15.51h23.21v4.85h-23.21v19.45h23.21v4.84h-28.15v-49.5Z"></path></g><path class="d" d="M787.94,64.14l-3.84-2c-2.9,5.87-6.4,11.42-10.46,16.56l-24.12-30.08c-2.23-2.74-3.34-6.22-3.11-9.75,.24-3.66,3.42-8.49,9-10.66,5.93-2.29,14.41,.66,21.1,7.36l3-3c-8-8-18.11-11.28-25.71-8.32-6.52,2.53-11.36,8.44-11.76,14.38-.31,4.59,1.12,9.13,4,12.72l1.3,1.64c-10.17,5.47-24.39,18-18,33.88,3.18,7.82,11.39,11.34,19.09,11.34,1.74,0,3.47-.18,5.17-.55,5.4-1.17,12.4-4.39,19.72-12.13l11,13.51,3.36-2.69-11.32-14.16c4.52-5.57,8.41-11.62,11.58-18.05Zm-35.12,29.23c-7.22,1.59-16.42-1-19.34-8.22-6.22-15.32,11.33-26,16.72-28.83l20.57,25.73c-6.77,7.28-13.1,10.26-17.95,11.32Z"></path></svg> 